<svg width="33" height="32" viewBox="0 0 33 32" fill="none" xmlns="http://www.w3.org/2000/svg">
<rect width="32" height="32" transform="translate(0.5)" fill="white"/>
<path d="M30.5 25.9378C30.5 27.3428 30.1341 28.2636 29.5691 28.9083C28.9889 29.5705 28.1 30.0543 26.8502 30.3859C24.506 31.0077 21.3 31.0036 17.5282 30.9987C17.1899 30.9982 16.8471 30.9978 16.5 30.9978C16.1529 30.9978 15.8101 30.9982 15.4718 30.9987C11.7 31.0036 8.49396 31.0077 6.14982 30.3859C4.89999 30.0543 4.01111 29.5705 3.43087 28.9083C2.86593 28.2636 2.5 27.3428 2.5 25.9378C2.5 23.1465 3.96504 20.6912 6.47477 18.8979C8.99357 17.0982 12.5319 16 16.5 16C20.4681 16 24.0064 17.0982 26.5252 18.8979C29.035 20.6912 30.5 23.1465 30.5 25.9378Z" stroke="#E2E2E2" stroke-width="2"/>
<circle cx="16.5" cy="7" r="6" stroke="#E2E2E2" stroke-width="2"/>
</svg>
